PathFileType	4	(X/Y/Z)	c:/Users/goper/Files/vsCode/490R/osim_files/C12/C12_Fast_02.trc
DataRate	CameraRate	NumFrames	NumMarkers	Units                	OrigDataRate	OrigDataStartFrame	OrigNumFrames
120.00	120.00	10	36	mm	120.0	713	1140
                Frame#	Time	LPSIS			LASIS			LTH1			LTH2			LTH3			LTH4			LLFE			LMFE			LSH1			LSH2			LSH3			LSH4			LLMAL			LMMAL			LCAL			LMTP5			LTOE			LMTP1			RPSIS			RASIS			RTH1			RTH2			RTH3			RTH4			RLFE			RMFE			RSH1			RSH2			RSH3			RSH4			RLMAL			RMMAL			RCAL			RMTP1			RTOE			RMTP5		
		X1	Y1	Z1	X2	Y2	Z2	X3	Y3	Z3	X4	Y4	Z4	X5	Y5	Z5	X6	Y6	Z6	X7	Y7	Z7	X8	Y8	Z8	X9	Y9	Z9	X10	Y10	Z10	X11	Y11	Z11	X12	Y12	Z12	X13	Y13	Z13	X14	Y14	Z14	X15	Y15	Z15	X16	Y16	Z16	X17	Y17	Z17	X18	Y18	Z18	X19	Y19	Z19	X20	Y20	Z20	X21	Y21	Z21	X22	Y22	Z22	X23	Y23	Z23	X24	Y24	Z24	X25	Y25	Z25	X26	Y26	Z26	X27	Y27	Z27	X28	Y28	Z28	X29	Y29	Z29	X30	Y30	Z30	X31	Y31	Z31	X32	Y32	Z32	X33	Y33	Z33	X34	Y34	Z34	X35	Y35	Z35	X36	Y36	Z36

713	5.93333	-1955.26160	1060.79846	311.27200	-2132.93652	1023.50177	358.88525	-2126.09692	743.32867	422.30969	-2148.23486	704.44696	419.38654	-2181.78442	770.69208	429.03281	-2197.44409	728.79718	425.88751	-2240.79688	552.18457	387.46902	-2258.22827	548.79114	264.17606	-2199.56934	447.98785	401.09915	-2211.18506	401.88022	409.37970	-2260.55786	457.02505	404.68619	-2262.42090	409.61057	409.88873	-2302.68237	114.45688	378.29761	-2327.87939	126.16083	303.51144	-2258.35791	76.12996	330.43924	-2441.23413	85.68956	422.89932	-2491.63916	133.38916	365.23077	-2478.90479	96.97962	321.00031	-1945.37244	1066.21606	200.43011	-2122.09619	1030.15564	104.77679	-1967.04602	759.50421	62.10624	-1958.70605	716.20801	71.34245	-2029.23779	745.05670	64.67614	-2014.19971	700.61298	73.44952	-1922.91724	540.45056	116.44202	-1926.12183	542.79181	248.07097	-1841.67322	455.74081	98.00711	-1835.72729	412.95871	93.01477	-1901.80957	439.40192	104.62140	-1886.69397	399.26047	98.94382	-1795.29504	125.35293	148.29057	-1812.29712	135.25060	229.70322	-1717.82776	98.72730	186.11702	-1923.29724	48.26399	230.39844	-1969.44165	62.76141	198.21677	-1931.79077	39.47586	123.44518
714	5.94167	-1968.17542	1057.30981	312.60730	-2146.44458	1020.36145	359.66608	-2136.35864	738.33502	421.14026	-2157.90918	699.21704	417.89828	-2192.50439	764.86560	428.11310	-2207.52686	722.88049	424.63571	-2251.31201	547.20801	385.80423	-2267.37158	543.14124	261.71912	-2215.70923	443.04401	400.77020	-2230.20605	397.67734	409.21066	-2277.09644	455.22330	402.81866	-2281.46436	408.16913	408.29218	-2337.17822	114.92708	378.84900	-2361.76562	127.02555	304.40002	-2294.40625	72.85446	333.21503	-2478.27637	95.11304	421.61118	-2524.88013	145.81015	363.03885	-2513.92896	107.81742	319.70850	-1957.82654	1063.29797	202.29305	-2134.06274	1027.33704	105.12490	-1974.71399	759.08600	62.66298	-1969.33850	714.65668	72.86331	-2036.73035	743.73395	64.75340	-2021.09814	699.55603	73.61363	-1928.30273	540.45935	116.57394	-1932.28894	542.28833	248.10931	-1846.07349	456.55652	98.40898	-1839.72791	413.80142	93.33154	-1905.90564	439.68295	104.77067	-1890.47180	399.60690	99.03862	-1796.13977	126.54615	148.55688	-1813.37927	136.15997	229.89500	-1718.58423	100.31608	186.44009	-1923.42529	48.29315	230.40988	-1969.61182	62.68435	198.21645	-1931.79980	39.43336	123.45855
715	5.95000	-1981.12268	1053.69788	313.90076	-2159.88989	1017.11188	360.26636	-2146.16479	733.13123	420.35629	-2167.08569	693.70831	417.00223	-2202.86060	758.78235	427.23087	-2217.15479	716.61023	423.60123	-2262.07275	542.17267	384.30142	-2276.38037	537.34131	259.22769	-2234.38477	437.27206	399.18887	-2250.91260	393.39020	407.42462	-2293.20679	453.86322	400.53571	-2300.56885	407.37360	406.25699	-2371.71167	116.50723	379.72058	-2393.21875	129.51503	304.56436	-2329.76660	71.32738	335.30997	-2513.74683	105.22758	419.94662	-2556.07153	158.48863	360.38272	-2546.69189	119.65247	317.54614	-1970.44763	1060.31091	204.15221	-2146.15894	1024.46948	105.43877	-1982.83423	758.61615	63.23527	-1976.76672	714.22681	73.47591	-2044.72693	742.50702	64.92860	-2028.58398	698.50458	73.85064	-1934.24231	540.36835	116.67164	-1939.11743	541.80682	248.33514	-1851.05286	457.29788	98.73903	-1844.08801	414.68369	93.67213	-1910.39429	439.77014	104.98534	-1894.60535	399.80270	99.13794	-1797.03259	127.80357	148.75397	-1814.49902	137.08810	230.13480	-1719.19067	102.07399	186.68452	-1923.57031	48.26261	230.40382	-1969.61438	62.57333	198.45578	-1931.81226	39.43184	123.47410
716	5.95833	-1994.19434	1050.14392	315.16275	-2173.77393	1013.85419	361.05484	-2155.54199	727.74567	420.08438	-2175.80835	688.03558	416.66385	-2212.87915	752.45056	426.46994	-2226.24390	710.01843	422.80908	-2273.83984	538.03418	383.09161	-2285.24487	531.63007	256.82422	-2251.53418	433.86649	398.47690	-2270.11182	390.49390	406.85303	-2309.41333	452.92294	398.60013	-2318.74878	407.47299	406.07394	-2403.75342	119.24140	380.03677	-2423.14795	132.62123	304.37354	-2364.45288	71.53148	336.18982	-2547.00244	115.62093	417.86285	-2585.11743	171.04652	357.13196	-2577.12744	131.01067	314.81906	-1983.23181	1057.28027	205.99718	-2159.16113	1021.75256	105.74297	-1991.42090	757.97083	63.99863	-1984.64111	713.74438	74.13660	-2053.00757	741.02533	65.19807	-2036.31323	697.21100	74.11108	-1940.95325	540.15515	116.78927	-1946.38647	541.18579	248.49718	-1856.45337	457.99207	98.94588	-1848.94946	415.52789	93.89167	-1915.25464	439.77301	105.11984	-1899.44226	399.98236	99.22770	-1798.01819	128.97226	148.70930	-1815.57532	138.04005	230.18874	-1720.05762	103.81049	186.71986	-1923.73096	48.26435	230.40419	-1969.81018	62.48263	198.36502	-1931.85034	39.36715	123.44165
717	5.96667	-2007.48657	1046.46362	316.40192	-2187.49976	1010.37122	361.80383	-2165.02051	722.36053	420.33224	-2183.36401	681.93964	416.60648	-2222.78076	746.09821	425.90298	-2235.99512	703.55835	422.68033	-2286.08325	534.21655	382.43811	-2294.29980	526.41614	254.80104	-2268.61914	430.68741	397.75650	-2288.93091	388.05930	406.38669	-2325.41504	452.02826	397.04056	-2336.94409	406.98077	404.81729	-2433.29272	122.42435	379.64932	-2451.23877	135.91852	303.73318	-2396.17603	72.01394	337.19342	-2578.27002	125.91159	415.39124	-2611.76270	182.62888	353.10757	-2605.36084	141.60918	311.70169	-1996.17517	1054.23206	207.81749	-2171.43457	1018.70312	106.22112	-2000.57336	757.08551	64.79031	-1993.76245	712.80652	74.71873	-2061.86377	739.48553	65.49301	-2044.66809	695.83838	74.50002	-1947.90942	539.96991	117.22968	-1954.26892	540.35223	248.75130	-1862.46228	458.51465	99.13199	-1854.43713	416.25568	94.05522	-1920.89978	439.69098	105.15144	-1904.68274	399.95889	99.31349	-1799.17761	130.29721	148.63022	-1816.94495	139.09482	230.11726	-1720.86096	105.85686	186.50540	-1923.86060	48.24202	230.33829	-1969.88196	62.32470	198.37157	-1931.95166	39.21630	123.38101
718	5.97500	-2020.96057	1042.88660	317.73770	-2201.14990	1006.91327	362.46274	-2174.97388	717.22107	420.83847	-2193.30420	676.80170	417.28513	-2232.99878	739.88245	425.85938	-2244.69556	696.90558	422.33713	-2298.98364	531.07751	382.02032	-2303.30933	521.89685	253.18039	-2285.22559	427.74658	397.50259	-2307.20435	385.75323	406.16891	-2341.31934	451.15842	396.50763	-2354.44360	406.32907	404.01651	-2460.72021	126.24232	380.32782	-2477.44238	139.04106	302.43848	-2425.56006	72.82891	337.20065	-2606.40942	135.03259	412.39810	-2636.61548	192.85197	349.31473	-2631.39136	150.90254	308.20172	-2009.27344	1051.19165	209.60275	-2183.21484	1015.41394	106.88159	-2010.23328	755.99976	65.54513	-2002.98315	711.80640	75.49727	-2071.29102	737.73511	65.89629	-2053.67554	694.26398	74.82005	-1953.53662	539.33215	115.72729	-1962.66125	539.22888	248.88280	-1869.01306	459.13339	99.36884	-1860.44092	416.82840	94.22226	-1927.24878	439.42352	105.12910	-1910.41797	399.80511	99.38177	-1800.58191	131.67732	148.31946	-1818.27698	140.24686	229.99924	-1721.82117	107.98913	186.29999	-1924.04761	48.14191	230.26717	-1969.91016	62.15332	198.33548	-1932.06836	39.04853	123.30323
719	5.98333	-2034.44702	1039.47229	319.21896	-2215.08618	1003.47021	363.26675	-2186.14526	713.70929	423.46692	-2203.47583	671.89709	417.84949	-2244.30322	734.06458	426.24478	-2254.98462	690.53802	421.77548	-2313.00171	528.34772	381.66080	-2312.91821	518.44525	252.16113	-2301.68652	424.35474	397.36563	-2324.36426	383.48840	406.16254	-2356.57715	449.92630	395.68661	-2371.48608	405.55966	403.47043	-2485.73657	128.87372	378.57364	-2501.61328	141.95287	300.50378	-2452.51831	73.62344	336.05283	-2631.81665	142.53784	409.06882	-2659.39722	201.33574	345.51498	-2655.17480	159.01056	304.61658	-2022.52283	1048.18481	211.34251	-2195.93555	1012.46411	107.34103	-2020.45862	754.68542	66.35844	-2012.75867	710.54382	76.19145	-2081.35962	735.89459	66.29031	-2063.42676	692.59406	75.22792	-1963.13025	538.21234	116.22378	-1971.62610	537.72925	249.00397	-1876.30054	459.47723	99.53797	-1867.07178	417.39813	94.25241	-1934.03003	439.01096	105.25842	-1916.73291	399.48160	99.47684	-1802.02002	133.37350	148.01570	-1819.86047	141.48842	229.84569	-1723.03125	110.41206	185.98734	-1924.22375	48.02198	230.11778	-1970.05371	61.90046	198.45035	-1932.22437	38.93375	123.24372
720	5.99167	-2048.06226	1036.31628	320.74475	-2228.76221	1000.21191	363.75983	-2198.59766	710.16931	423.90372	-2215.38574	667.97412	418.36447	-2257.05688	729.74432	426.80280	-2267.39575	686.36731	422.29327	-2327.24390	525.69983	381.18796	-2323.80005	515.99268	251.21228	-2317.36841	421.48010	397.79730	-2341.55762	380.90436	406.15854	-2371.55469	448.27341	395.20297	-2388.03760	404.23709	401.83548	-2508.62500	130.14389	376.24728	-2523.75879	144.19679	297.97617	-2476.76758	73.94168	333.83780	-2654.61011	147.97093	405.64526	-2679.74585	208.07693	342.27036	-2676.58936	165.90317	301.28491	-2035.91895	1045.23706	213.02632	-2209.58618	1009.81268	107.77815	-2031.18750	753.22070	67.00680	-2022.84497	709.31195	77.09279	-2091.96973	734.09235	66.71375	-2073.73926	690.88177	75.62354	-1972.15491	537.18011	116.38242	-1981.10767	536.04034	248.96535	-1884.21912	459.87283	99.54333	-1874.26355	417.93088	94.20161	-1941.21643	438.50928	105.32542	-1923.49561	399.19534	99.49319	-1803.78699	135.18982	147.71489	-1821.61462	143.04437	229.64890	-1724.27258	113.38223	185.61757	-1924.51440	47.90353	229.90187	-1970.19897	61.72994	198.45312	-1932.46069	38.88123	123.10957
721	6.00000	-2061.53540	1033.34851	322.43176	-2242.28345	996.94122	364.38589	-2213.35327	707.72119	424.48895	-2229.85571	665.22375	418.61606	-2271.69434	727.36713	427.61966	-2281.94775	683.91394	422.90347	-2342.42603	523.79791	380.92636	-2336.07373	514.16583	250.74115	-2332.69360	418.56894	397.91620	-2358.18164	378.40079	405.98410	-2386.81055	446.21774	394.44766	-2403.85596	402.52148	400.79263	-2529.32373	130.16223	373.53036	-2543.28052	145.60396	295.07062	-2497.99414	73.33826	330.83093	-2674.09692	151.04828	402.21851	-2697.57275	212.69319	339.46335	-2695.21533	171.00941	298.05179	-2049.45801	1042.37427	214.64377	-2222.10278	1006.97198	108.60938	-2042.41797	751.60455	67.71408	-2034.17981	707.58899	77.41476	-2103.11816	732.17810	67.13370	-2084.58008	689.04865	75.94382	-1981.95959	535.88348	116.29641	-1991.18445	534.25262	248.83853	-1892.79382	460.21234	99.53373	-1882.27063	418.34134	94.03987	-1951.71191	435.86456	107.72761	-1930.96301	398.84915	99.46825	-1806.06982	136.42453	148.06606	-1823.46924	144.78250	229.35709	-1725.69714	116.64743	185.23314	-1924.78149	47.79975	229.61072	-1970.36816	61.60405	198.43988	-1932.50415	38.76276	123.13686
722	6.00833	-2075.16943	1030.61877	324.19659	-2256.12354	993.73157	364.95560	-2229.49951	705.91766	425.17313	-2246.88281	663.80878	419.36478	-2287.56641	726.28705	428.47177	-2298.14355	682.65631	423.43704	-2357.89990	522.48895	379.91364	-2349.75146	513.08325	250.16052	-2348.09985	416.17899	397.34122	-2373.62866	375.95145	404.76700	-2402.24854	443.95111	393.34378	-2419.64990	400.33905	399.31461	-2546.50635	128.95650	370.64655	-2559.81763	144.93134	291.87311	-2515.66553	71.42005	327.97552	-2690.88745	152.09529	399.11050	-2712.58765	214.85646	336.60049	-2710.97754	173.20912	294.91260	-2063.13599	1039.62195	216.18439	-2236.88965	1005.08588	109.30724	-2054.56226	749.75854	68.20695	-2045.29541	705.99615	78.15255	-2114.67969	730.15417	67.58643	-2096.23511	687.13239	76.18550	-1991.97498	534.70685	116.57151	-2001.81226	532.32611	248.83446	-1901.96851	460.50299	99.47941	-1890.60706	418.87369	93.86983	-1960.36243	434.97794	107.58723	-1938.91724	398.31372	99.47063	-1808.25171	138.53204	147.46541	-1825.59900	146.63286	228.84950	-1727.54602	120.12850	184.63010	-1925.08740	47.69477	229.22614	-1970.48743	61.42015	198.45277	-1932.77393	38.63971	122.90712
